<svg xmlns="http://www.w3.org/2000/svg" width="160" height="160" viewBox="0 0 160 160">
<g>
	<g>
		<g opacity="0.6">
			<path fill="#084058" d="M27.3,157c-2.2,1.6-1.8,3,1,3h103.3c2.8,0,3.2-1.3,1-3l-48.6-36c-2.2-1.6-5.8-1.6-8,0L27.3,157z"/>
		</g>
		<g>
			<g opacity="0.6">
				<path fill="#084058" d="M76,12.2c2.2-1.6,5.8-1.6,8,0l72,53.2c2.2,1.6,4,0.7,4-2V5c0-2.8-2.2-5-5-5H5C2.2,0,0,2.3,0,5v58.4
					c0,2.8,1.8,3.7,4,2L76,12.2z"/>
			</g>
			<g>
				<path fill="#084058" d="M84,26.5c-2.2-1.6-5.8-1.6-8,0L4,79.8c-2.2,1.6-4,5.2-4,8V109c0,2.8,1.8,3.7,4,2l72-53.2
					c2.2-1.6,5.8-1.6,8,0l72,53.2c2.2,1.6,4,0.7,4-2V87.7c0-2.8-1.8-6.3-4-8L84,26.5z"/>
			</g>
			<g>
				<path fill="#084058" d="M84,72.5c-2.2-1.6-5.8-1.6-8,0L4,125.7c-2.2,1.6-4,5.2-4,8V155c0,2.8,1.8,3.7,4,2l72-53.2
					c2.2-1.6,5.8-1.6,8,0l72,53.2c2.2,1.6,4,0.7,4-2v-21.3c0-2.8-1.8-6.3-4-8L84,72.5z"/>
			</g>
		</g>
	</g>
</g>
</svg>
